<svg width="1048" height="1350" viewBox="0 0 1048 1350" fill="none" xmlns="http://www.w3.org/2000/svg">
<g opacity="0.02">
<path fill-rule="evenodd" clip-rule="evenodd" d="M301.096 1208.08C256.879 1176.7 209.856 1140.37 173.535 1102.38C137.215 1064.41 111.597 1024.78 96.7708 985.56C81.8566 946.336 77.7327 907.532 76.9431 871.194C76.0658 834.874 78.6102 801.009 81.0667 767.154C60.4499 786.981 39.7456 806.799 22.024 829.917C4.30231 853.034 -10.6123 879.449 -21.7541 907.523C-32.8959 935.606 -40.3532 965.329 -40.3532 1009.49C-40.3532 1034.29 -37.9845 1063.66 -34.6507 1095.01C79.6626 1260.52 263.547 1374.28 474.715 1394C455.327 1322.83 391.458 1272.26 301.096 1208.08ZM958.551 928.044C958.99 923.411 965.657 924.99 968.728 931.342C986.186 967.759 968.728 1027.51 939.952 1052.66C920.476 1069.58 852.484 1080.37 819.498 1078.52C810.637 1001.84 680.269 975.023 639.211 999.184C605.347 1019.06 607.189 1080.84 630.964 1134.56C673.425 1230.39 723.432 1258.32 752.91 1364.2C707.202 1378.76 659.476 1388.74 610.347 1393.62C571.745 1320.18 536.302 1279.25 434.008 1220.46C287.848 1136.48 153.269 1056.95 128.967 874.089C117.211 786.253 154.497 710.392 199.942 638.356C158.094 657.867 121.949 678.616 81.0667 705.242C115.545 507.383 296.797 387.762 482.348 526.894C459.187 556.617 436.114 586.332 419.182 614.406C402.25 642.488 391.546 668.913 386.984 702.347C382.422 735.79 384.089 776.252 396.459 809.265C408.829 842.295 431.99 867.895 455.063 893.495C462.52 875.326 469.978 857.166 482.348 843.129C494.718 829.092 512.088 819.187 529.02 814.23C545.865 809.265 562.446 809.274 573.15 814.23C579.115 816.968 607.276 866.413 633.596 870.317C706.237 881.055 769.403 926.324 810.988 960.004C870.732 1008.55 939.163 1013.61 958.551 928.044ZM951.181 525.929C977.852 526.131 1005.31 539.896 1047.42 563.917C1031.46 592.394 1017.77 604.273 1007.33 638.119C996.714 671.983 988.468 709.137 983.73 741.545C979.958 767.171 984.519 792.324 983.379 814.362C983.116 820.178 979.256 827.627 976.536 829.276C968.202 816.064 959.955 802.852 949.076 794.596C938.11 786.341 924.512 783.033 878.892 785.507C833.272 787.99 755.63 796.246 677.988 804.501C678.076 798.878 680.268 792.026 689.568 789.359C753.611 771.084 831.253 760.627 868.539 748.564C911.264 734.746 922.844 728.131 933.811 707.269C944.69 686.433 955.041 651.34 954.076 627.399C952.936 603.448 940.566 590.648 929.249 582.191C917.844 573.725 907.579 569.593 897.227 565.47C897.227 542.607 918.809 525.675 951.181 525.929ZM562.534 427.679C608.329 427.679 653.862 406.624 699.745 406.624C698.868 415.713 696.499 432.224 698.166 442.128C699.833 452.042 709.834 462.149 713.958 472.887C678.69 466.544 587.361 454.2 562.534 427.679ZM433.569 8.15881C555.866 98.0128 572.36 124.604 607.452 255.665C694.92 322.13 782.475 388.604 869.943 455.078C861.345 436.496 852.66 417.924 829.148 392.728C805.548 367.549 767.21 335.755 736.416 305.62C705.711 275.493 682.55 246.997 669.741 220.573C656.932 194.157 654.476 169.803 652.019 145.449C618.243 96.9865 584.467 48.5325 550.603 0.0787354C547.269 0.026123 543.935 0 540.513 0C504.105 0 468.398 2.78967 433.569 8.15881ZM494.718 224.705C448.045 119.717 347.33 99.3291 244.509 83.5199C407.338 71.4657 502.262 101.426 583.852 251.955C561.217 147.423 504.28 69.281 386.896 16.967C269.512 43.3302 163.182 99.2587 76.3289 176.523C231.613 152.678 349.611 158.995 494.718 224.705ZM264.337 412.958C257.318 413.783 250.299 414.607 237.491 416.879C224.682 419.152 206.171 422.863 184.238 428.855C162.393 434.838 137.214 443.094 112.035 451.349C121.072 442.69 130.196 434.013 146.075 423.486C161.954 412.958 184.676 400.57 213.189 391.692C241.614 382.822 275.917 377.453 310.22 372.084C289.515 370.847 268.899 369.61 242.843 370.224C216.874 370.847 185.466 373.321 154.322 379.103C123.177 384.884 92.2088 393.964 61.2398 403.053C70.7148 394.789 80.1894 386.534 97.2969 376.419C114.492 366.303 139.232 354.336 165.814 344.01C192.485 333.693 220.997 325.025 249.51 316.349C209.856 318.831 170.201 321.305 138.179 325.639C106.245 329.973 81.8559 336.167 53.9575 345.045C26.1468 353.924 -5.26019 365.479 -36.5801 377.041C-11.4014 360.531 13.7773 344.01 43.0794 328.947C72.3815 313.875 105.807 300.25 147.128 289.108C188.361 277.958 237.491 269.29 285.392 264.544C333.293 259.797 379.966 258.982 426.639 258.14C389.441 251.533 352.33 244.936 317.326 240.804C282.497 236.672 249.861 235.023 214.418 234.408C178.887 233.786 140.46 234.198 97.1212 238.33C67.9946 241.102 36.5869 245.55 4.56516 250.559C-96.8517 371.821 -158 528.052 -158 698.531C-158 784.49 -142.472 866.808 -114.047 942.862C-83.8677 706.234 40.4476 505.918 264.337 412.958Z" fill="#050E53"/>
</g>
</svg>
