<svg width="174" height="174" viewBox="0 0 174 174" fill="none" xmlns="http://www.w3.org/2000/svg">
<path d="M86.5 49C74.9673 49.0139 63.9108 53.6954 55.7559 62.0177C47.601 70.34 43.0137 81.6234 43 93.3929C42.9862 103.011 46.0647 112.368 51.7633 120.029C51.7633 120.029 52.9497 121.623 53.1434 121.853L86.5 162L119.872 121.833C120.046 121.619 121.237 120.029 121.237 120.029L121.241 120.016C126.936 112.359 130.013 103.006 130 93.3929C129.986 81.6234 125.399 70.34 117.244 62.0177C109.089 53.6954 98.0327 49.0139 86.5 49ZM86.5 109.536C83.3715 109.536 80.3132 108.589 77.7119 106.815C75.1106 105.041 73.0832 102.52 71.8859 99.5705C70.6887 96.6207 70.3754 93.375 70.9858 90.2435C71.5961 87.1121 73.1027 84.2358 75.3149 81.9781C77.5271 79.7205 80.3456 78.1831 83.414 77.5602C86.4825 76.9373 89.663 77.257 92.5533 78.4788C95.4437 79.7006 97.9142 81.7697 99.6523 84.4244C101.39 87.079 102.318 90.2001 102.318 93.3929C102.313 97.6726 100.645 101.775 97.6794 104.802C94.714 107.828 90.6936 109.53 86.5 109.536Z" fill="#050E53"/>
<circle cx="87" cy="93" r="27" fill="white"/>
<g opacity="0.4" filter="url(#filter0_f_329_5458)">
<circle cx="87" cy="87" r="27" fill="white"/>
</g>
<path fill-rule="evenodd" clip-rule="evenodd" d="M83.7221 94.7344C83.0513 94.2583 82.338 93.7072 81.7871 93.131C81.2361 92.555 80.8475 91.9537 80.6226 91.3588C80.3963 90.7638 80.3338 90.1752 80.3218 89.624C80.3085 89.073 80.3471 88.5593 80.3843 88.0457C80.0716 88.3465 79.7575 88.6471 79.4887 88.9978C79.2199 89.3485 78.9936 89.7492 78.8246 90.1751C78.6556 90.6011 78.5425 91.0519 78.5425 91.7219C78.5425 92.0981 78.5784 92.5436 78.629 93.0192C80.363 95.5298 83.1525 97.2555 86.3558 97.5547C86.0617 96.4751 85.0928 95.708 83.7221 94.7344ZM93.6954 90.4863C93.702 90.4161 93.8032 90.44 93.8497 90.5364C94.1146 91.0888 93.8498 91.9952 93.4132 92.3767C93.1178 92.6334 92.0864 92.7971 91.586 92.769C91.4516 91.6058 89.474 91.199 88.8511 91.5655C88.3374 91.867 88.3654 92.8043 88.726 93.6191C89.3702 95.0728 90.1287 95.4964 90.5759 97.1026C89.8825 97.3235 89.1585 97.475 88.4133 97.549C87.8277 96.4349 87.2901 95.814 85.7383 94.9222C83.5211 93.6483 81.4796 92.4417 81.111 89.6679C80.9326 88.3354 81.4983 87.1847 82.1876 86.0919C81.5528 86.3879 81.0045 86.7026 80.3843 87.1066C80.9074 84.1051 83.6569 82.2905 86.4716 84.4011C86.1203 84.852 85.7702 85.3027 85.5134 85.7286C85.2565 86.1546 85.0942 86.5555 85.025 87.0626C84.9558 87.57 84.9811 88.1837 85.1687 88.6845C85.3563 89.1856 85.7077 89.5739 86.0577 89.9623C86.1708 89.6866 86.2839 89.4112 86.4716 89.1982C86.6592 88.9853 86.9227 88.835 87.1796 88.7599C87.4351 88.6845 87.6867 88.6847 87.849 88.7599C87.9395 88.8014 88.3667 89.5514 88.766 89.6107C89.8679 89.7736 90.8261 90.4603 91.4569 90.9712C92.3632 91.7077 93.4013 91.7843 93.6954 90.4863ZM93.5836 84.3865C93.9882 84.3895 94.4047 84.5983 95.0435 84.9627C94.8013 85.3947 94.5937 85.5749 94.4353 86.0883C94.2743 86.602 94.1492 87.1656 94.0773 87.6573C94.0201 88.046 94.0893 88.4275 94.072 88.7618C94.068 88.8501 94.0095 88.9631 93.9682 88.9881C93.8418 88.7877 93.7167 88.5872 93.5516 88.462C93.3853 88.3368 93.179 88.2866 92.487 88.3241C91.7949 88.3618 90.6172 88.487 89.4394 88.6123C89.4407 88.527 89.474 88.423 89.615 88.3826C90.5865 88.1053 91.7643 87.9467 92.3299 87.7637C92.978 87.5541 93.1537 87.4538 93.3201 87.1373C93.4851 86.8212 93.6421 86.2889 93.6275 85.9257C93.6102 85.5624 93.4226 85.3682 93.2509 85.2399C93.0779 85.1115 92.9222 85.0488 92.7651 84.9863C92.7651 84.6395 93.0925 84.3826 93.5836 84.3865ZM87.688 82.8961C88.3827 82.8961 89.0734 82.5767 89.7694 82.5767C89.7561 82.7145 89.7202 82.965 89.7455 83.1152C89.7707 83.2656 89.9225 83.4189 89.985 83.5818C89.45 83.4856 88.0646 83.2984 87.688 82.8961ZM85.7316 76.5321C87.5868 77.8952 87.837 78.2985 88.3694 80.2867C89.6962 81.2949 91.0244 82.3033 92.3512 83.3117C92.2208 83.0298 92.0891 82.7481 91.7324 82.3659C91.3744 81.9839 90.7928 81.5016 90.3257 81.0445C89.8599 80.5875 89.5086 80.1552 89.3143 79.7543C89.12 79.3536 89.0827 78.9842 89.0454 78.6147C88.5331 77.8796 88.0207 77.1446 87.507 76.4095C87.4564 76.4088 87.4058 76.4084 87.3539 76.4084C86.8016 76.4084 86.26 76.4507 85.7316 76.5321ZM86.6592 79.817C85.9512 78.2244 84.4234 77.9151 82.8637 77.6753C85.3337 77.4925 86.7737 77.9469 88.0114 80.2304C87.668 78.6447 86.8043 77.4593 85.0236 76.6657C83.243 77.0657 81.63 77.9141 80.3125 79.0861C82.6681 78.7244 84.458 78.8202 86.6592 79.817ZM83.1645 82.6727C83.058 82.6852 82.9515 82.6978 82.7572 82.7322C82.5629 82.7667 82.2821 82.823 81.9494 82.9139C81.618 83.0046 81.2361 83.1299 80.8541 83.2551C80.9912 83.1238 81.1296 82.9921 81.3705 82.8324C81.6114 82.6727 81.9561 82.4848 82.3886 82.3501C82.8198 82.2156 83.3401 82.1341 83.8605 82.0527C83.5464 82.0339 83.2337 82.0152 82.8384 82.0245C82.4445 82.0339 81.968 82.0715 81.4956 82.1592C81.0231 82.2469 80.5534 82.3846 80.0836 82.5225C80.2273 82.3971 80.371 82.2719 80.6305 82.1184C80.8914 81.965 81.2667 81.7835 81.6699 81.6268C82.0745 81.4703 82.507 81.3388 82.9395 81.2072C82.338 81.2449 81.7365 81.2824 81.2507 81.3482C80.7663 81.4139 80.3963 81.5079 79.9731 81.6425C79.5512 81.7772 79.0748 81.9525 78.5997 82.1279C78.9816 81.8774 79.3636 81.6268 79.8081 81.3983C80.2526 81.1697 80.7596 80.963 81.3865 80.794C82.012 80.6248 82.7572 80.4934 83.4839 80.4214C84.2105 80.3494 84.9185 80.337 85.6265 80.3242C85.0622 80.224 84.4993 80.1239 83.9683 80.0612C83.4399 79.9986 82.9449 79.9735 82.4072 79.9642C81.8682 79.9548 81.2853 79.961 80.6279 80.0237C80.186 80.0658 79.7096 80.1332 79.2239 80.2092C77.6854 82.0487 76.7578 84.4187 76.7578 87.0047C76.7578 88.3087 76.9934 89.5574 77.4246 90.7111C77.8824 87.1216 79.7682 84.0829 83.1645 82.6727Z" fill="#050E53"/>
<path fill-rule="evenodd" clip-rule="evenodd" d="M96.2705 87.0054C96.2705 90.7993 93.9022 94.0401 90.5629 95.3297L91.4085 96.7969C95.2482 95.2042 97.9469 91.4201 97.9469 87.0054C97.9469 81.4823 93.7215 76.946 88.3281 76.4535L89.2587 78.2894C93.2683 79.1628 96.2705 82.7335 96.2705 87.0054Z" fill="#E0BA5D"/>
<path d="M87.5559 100.141V108.057H86.0116L86.0088 102.713L85.395 108.057H84.3132L83.6657 102.833L83.6629 108.057H82.1172V100.141H84.3972C84.4631 100.62 84.5276 101.184 84.6074 101.827L84.8583 103.837L85.2605 100.141H87.5559ZM90.0336 100.141V108.057H88.2664V100.141H90.0336ZM94.6763 100.141V108.057H93.132L92.2141 104.458V108.057H90.7385V100.141H92.2141L93.2007 103.705V100.141H94.6763ZM97.1512 100.141V108.057H95.384V100.141H97.1512ZM101.795 100.141V108.057H100.251L99.3331 104.458V108.057H97.8575V100.141H99.3331L100.32 103.705V100.141H101.795ZM106.543 103.063H104.776V102.345C104.776 101.891 104.759 101.607 104.727 101.494C104.695 101.379 104.615 101.322 104.493 101.322C104.386 101.322 104.314 101.371 104.274 101.469C104.238 101.566 104.218 101.818 104.218 102.221V106.017C104.218 106.37 104.237 106.606 104.274 106.717C104.314 106.829 104.389 106.886 104.504 106.886C104.629 106.886 104.714 106.823 104.759 106.696C104.804 106.569 104.828 106.32 104.828 105.952V105.015H104.485V103.814H106.543V108.057H105.432L105.268 107.489C105.149 107.735 104.997 107.918 104.817 108.042C104.633 108.165 104.416 108.227 104.169 108.227C103.872 108.227 103.598 108.143 103.338 107.975C103.082 107.807 102.886 107.599 102.752 107.351C102.619 107.104 102.534 106.844 102.502 106.572C102.468 106.301 102.45 105.892 102.45 105.348V102.997C102.45 102.241 102.485 101.692 102.555 101.351C102.625 101.007 102.825 100.693 103.155 100.408C103.485 100.123 103.913 99.9814 104.438 99.9814C104.954 99.9814 105.381 100.105 105.722 100.353C106.063 100.602 106.285 100.895 106.388 101.236C106.491 101.577 106.543 102.071 106.543 102.721V103.063Z" fill="#E0BA5D"/>
<path d="M71.6093 100.134V101.715H70.5722V108.049H68.8049V101.715H67.7578V100.134H71.6093ZM74.7782 100.134L75.7877 108.049H73.9853L73.8889 106.628H73.2526L73.1562 108.049H71.3312L72.2255 100.134H74.7782ZM73.8413 105.227C73.7574 104.33 73.6684 103.219 73.5745 101.893C73.4004 103.414 73.2902 104.525 73.2426 105.227H73.8413ZM80.0976 100.134V105.425C80.0976 106.026 80.0801 106.448 80.0475 106.689C80.0124 106.933 79.9135 107.183 79.7494 107.438C79.5853 107.695 79.3674 107.888 79.0994 108.02C78.8288 108.152 78.5119 108.219 78.1449 108.219C77.7404 108.219 77.3834 108.14 77.074 107.984C76.7647 107.827 76.5329 107.623 76.3801 107.373C76.2248 107.121 76.1346 106.856 76.1071 106.578C76.0795 106.299 76.0645 105.712 76.0645 104.82V100.134H77.8318V106.071C77.8318 106.416 77.8481 106.638 77.8794 106.733C77.9107 106.829 77.9758 106.878 78.071 106.878C78.18 106.878 78.2514 106.825 78.2827 106.719C78.314 106.613 78.3303 106.363 78.3303 105.969V100.134H80.0976Z" fill="#050E53"/>
<defs>
<filter id="filter0_f_329_5458" x="0" y="0" width="174" height="174" filterUnits="userSpaceOnUse" color-interpolation-filters="sRGB">
<feFlood flood-opacity="0" result="BackgroundImageFix"/>
<feBlend mode="normal" in="SourceGraphic" in2="BackgroundImageFix" result="shape"/>
<feGaussianBlur stdDeviation="30" result="effect1_foregroundBlur_329_5458"/>
</filter>
</defs>
</svg>
