<svg width="130" height="107" viewBox="0 0 130 107" fill="none" xmlns="http://www.w3.org/2000/svg">
<path fill-rule="evenodd" clip-rule="evenodd" d="M53.5151 61.4261C51.2668 59.8305 48.8759 57.9833 47.0291 56.0518C45.1824 54.1212 43.8798 52.1058 43.126 50.1118C42.3676 48.1174 42.158 46.1444 42.1178 44.2968C42.0732 42.45 42.2026 40.7282 42.3275 39.0068C41.2792 40.0149 40.2265 41.0226 39.3254 42.198C38.4243 43.3734 37.666 44.7165 37.0994 46.144C36.5329 47.5719 36.1537 49.0832 36.1537 51.3287C36.1537 52.5898 36.2742 54.0828 36.4437 55.6771C42.2561 64.0923 51.6059 69.8766 62.3429 70.8794C61.3571 67.2608 58.1097 64.6896 53.5151 61.4261ZM86.9441 47.1874C86.9664 46.9518 87.3054 47.0321 87.4615 47.3551C88.3492 49.2067 87.4615 52.245 85.9984 53.5234C85.0081 54.3839 81.551 54.9326 79.8738 54.8385C79.4232 50.9398 72.7945 49.5761 70.7069 50.8046C68.985 51.815 69.0787 54.9567 70.2876 57.688C72.4466 62.5605 74.9892 63.9804 76.488 69.3641C74.164 70.1045 71.7373 70.6122 69.2393 70.8602C67.2765 67.1261 65.4744 65.0447 60.2731 62.0555C52.8415 57.7857 45.9987 53.7416 44.763 44.444C44.1653 39.9779 46.0611 36.1206 48.3718 32.4579C46.244 33.45 44.4062 34.505 42.3275 35.8588C44.0806 25.7984 53.2965 19.7162 62.731 26.7905C61.5534 28.3018 60.3802 29.8127 59.5193 31.2401C58.6584 32.668 58.1141 34.0116 57.8822 35.7116C57.6502 37.412 57.735 39.4693 58.3639 41.1479C58.9929 42.8274 60.1705 44.1291 61.3437 45.4307C61.7229 44.5069 62.1021 43.5835 62.731 42.8698C63.36 42.1561 64.2432 41.6524 65.1041 41.4004C65.9606 41.1479 66.8037 41.1484 67.3479 41.4004C67.6513 41.5396 69.0831 44.0537 70.4214 44.2522C74.1149 44.7982 77.3267 47.0999 79.4411 48.8124C82.4788 51.281 85.9583 51.5379 86.9441 47.1874ZM86.5694 26.7414C87.9254 26.7517 89.3217 27.4516 91.4628 28.673C90.651 30.1209 89.9551 30.7249 89.4243 32.4459C88.8845 34.1677 88.4652 36.0569 88.2243 37.7047C88.0325 39.0076 88.2645 40.2865 88.2065 41.4071C88.1931 41.7028 87.9968 42.0816 87.8585 42.1654C87.4348 41.4936 87.0155 40.8218 86.4623 40.4021C85.9047 39.9823 85.2133 39.8141 82.8937 39.9399C80.5741 40.0662 76.6263 40.486 72.6786 40.9057C72.683 40.6198 72.7945 40.2714 73.2673 40.1358C76.5237 39.2066 80.4715 38.6749 82.3673 38.0615C84.5397 37.3589 85.1285 37.0226 85.6861 35.9618C86.2393 34.9024 86.7656 33.1181 86.7166 31.9008C86.6586 30.683 86.0296 30.0321 85.4542 29.6021C84.8743 29.1716 84.3524 28.9616 83.826 28.7519C83.826 27.5894 84.9233 26.7285 86.5694 26.7414ZM66.8082 21.7458C69.1367 21.7458 71.4518 20.6752 73.7848 20.6752C73.7402 21.1374 73.6198 21.9769 73.7045 22.4805C73.7893 22.9846 74.2978 23.4985 74.5075 24.0444C72.7142 23.7219 68.0706 23.0943 66.8082 21.7458ZM60.2508 0.414864C66.4691 4.98358 67.3078 6.33564 69.0921 12.9996C73.5395 16.3791 77.9913 19.759 82.4387 23.1389C82.0016 22.1941 81.5599 21.2498 80.3644 19.9687C79.1645 18.6884 77.2151 17.0718 75.6494 15.5396C74.0881 14.0077 72.9105 12.5589 72.2592 11.2153C71.608 9.87214 71.483 8.63383 71.3581 7.39553C69.6407 4.9314 67.9234 2.4677 66.2015 0.00402832C66.032 0.0013504 65.8625 1.52588e-05 65.6885 1.52588e-05C63.8373 1.52588e-05 62.0218 0.141861 60.2508 0.414864ZM63.36 11.4254C60.9869 6.08717 55.8659 5.05051 50.6379 4.24668C58.9171 3.63377 63.7436 5.15713 67.8921 12.8109C66.7412 7.49591 63.8462 3.52268 57.8777 0.862724C51.9092 2.20319 46.5027 5.04693 42.0866 8.97553C49.9821 7.76309 55.9819 8.08426 63.36 11.4254ZM51.646 20.9973C51.2892 21.0392 50.9323 21.0811 50.281 21.1967C49.6297 21.3122 48.6885 21.5009 47.5733 21.8056C46.4626 22.1098 45.1824 22.5296 43.9021 22.9493C44.3616 22.5091 44.8255 22.0679 45.6329 21.5326C46.4403 20.9973 47.5956 20.3674 49.0454 19.916C50.4907 19.465 52.2348 19.192 53.979 18.919C52.9263 18.8561 51.878 18.7932 50.5531 18.8245C49.2328 18.8561 47.6358 18.9819 46.0522 19.2759C44.4686 19.5699 42.894 20.0315 41.3194 20.4937C41.8011 20.0735 42.2829 19.6537 43.1527 19.1394C44.027 18.6251 45.2849 18.0166 46.6366 17.4916C47.9926 16.967 49.4424 16.5263 50.8921 16.0851C48.8759 16.2113 46.8596 16.3371 45.2314 16.5575C43.6077 16.7778 42.3676 17.0928 40.9491 17.5442C39.535 17.9956 37.9381 18.5832 36.3456 19.1711C37.6258 18.3316 38.9061 17.4916 40.396 16.7257C41.8859 15.9593 43.5854 15.2666 45.6864 14.7C47.783 14.1331 50.281 13.6923 52.7166 13.451C55.1522 13.2097 57.5253 13.1682 59.8985 13.1254C58.0071 12.7895 56.1202 12.4541 54.3403 12.244C52.5694 12.0339 50.91 11.95 49.1078 11.9188C47.3012 11.8871 45.3474 11.908 43.1438 12.1181C41.6628 12.2591 40.0659 12.4852 38.4377 12.74C33.281 18.9056 30.1719 26.8494 30.1719 35.5176C30.1719 39.8882 30.9614 44.0737 32.4067 47.9408C33.9412 35.9092 40.2622 25.7239 51.646 20.9973Z" fill="#050E53"/>
<path fill-rule="evenodd" clip-rule="evenodd" d="M95.5825 35.5197C95.5825 48.2365 87.6444 59.0989 76.4515 63.4214L79.2859 68.3394C92.1559 63.001 101.202 50.3173 101.202 35.5197C101.202 17.0071 87.0386 1.80225 68.9609 0.151344L72.0801 6.30516C85.5197 9.23267 95.5825 21.2008 95.5825 35.5197Z" fill="#E0BA5D"/>
<path d="M66.3549 79.5312V106.062H61.1786L61.1692 88.1511L59.1118 106.062H55.4855L53.3154 88.5536L53.306 106.062H48.125V79.5312H55.7674C55.9881 81.1358 56.2042 83.0269 56.472 85.1824L57.3127 91.9187L58.6608 79.5312H66.3549ZM74.6596 79.5312V106.062H68.7364V79.5312H74.6596ZM90.2214 79.5312V106.062H85.0451L81.9684 93.9982V106.062H77.0223V79.5312H81.9684L85.2753 91.4772V79.5312H90.2214ZM98.5167 79.5312V106.062H92.5935V79.5312H98.5167ZM114.083 79.5312V106.062H108.907L105.83 93.9982V106.062H100.884V79.5312H105.83L109.137 91.4772V79.5312H114.083ZM129.997 89.3249H124.074V86.9157C124.074 85.3957 124.018 84.445 123.91 84.0645C123.802 83.6793 123.534 83.4891 123.125 83.4891C122.768 83.4891 122.524 83.6516 122.393 83.9809C122.27 84.3055 122.205 85.1496 122.205 86.5024V99.2248C122.205 100.41 122.266 101.198 122.393 101.572C122.524 101.947 122.778 102.137 123.163 102.137C123.581 102.137 123.868 101.925 124.018 101.5C124.168 101.076 124.248 100.242 124.248 99.0068V95.8653H123.097V91.8403H129.997V106.062H126.273L125.723 104.161C125.324 104.983 124.816 105.598 124.21 106.011C123.595 106.426 122.867 106.631 122.04 106.631C121.045 106.631 120.124 106.353 119.255 105.787C118.395 105.224 117.738 104.528 117.291 103.697C116.845 102.868 116.559 101.998 116.451 101.086C116.338 100.175 116.277 98.8053 116.277 96.9833V89.1013C116.277 86.5691 116.394 84.7301 116.629 83.5845C116.864 82.4322 117.536 81.3815 118.64 80.4256C119.748 79.4697 121.181 78.9948 122.942 78.9948C124.671 78.9948 126.103 79.4086 127.245 80.2414C128.386 81.0743 129.133 82.0579 129.476 83.1984C129.824 84.3445 129.997 85.9993 129.997 88.1788V89.3249Z" fill="#E0BA5D"/>
<path d="M12.9096 79.5258V84.8249H9.43348V106.056H3.50972V84.8249H0V79.5258H12.9096ZM23.5312 79.5258L26.915 106.056H20.8737L20.5504 101.293H18.4177L18.0945 106.056H11.9776L14.9752 79.5258H23.5312ZM20.3909 96.5976C20.1096 93.59 19.8115 89.8674 19.4967 85.4231C18.9131 90.5211 18.5436 94.2441 18.3841 96.5976H20.3909ZM41.3612 79.5258V97.2626C41.3612 99.2748 41.3024 100.689 41.1932 101.5C41.0757 102.316 40.744 103.154 40.194 104.01C39.6441 104.871 38.9136 105.519 38.0152 105.961C37.1083 106.402 36.0462 106.626 34.8161 106.626C33.46 106.626 32.2635 106.363 31.2266 105.838C30.1896 105.312 29.4129 104.63 28.9007 103.792C28.3801 102.947 28.0779 102.059 27.9855 101.125C27.8932 100.192 27.8428 98.224 27.8428 95.2336V79.5258H33.7665V99.426C33.7665 100.583 33.8211 101.327 33.926 101.645C34.031 101.969 34.2493 102.131 34.5684 102.131C34.9336 102.131 35.1729 101.953 35.2779 101.6C35.3828 101.243 35.4374 100.404 35.4374 99.0851V79.5258H41.3612Z" fill="#050E53"/>
</svg>
