<svg width="92" height="76" viewBox="0 0 92 76" fill="none" xmlns="http://www.w3.org/2000/svg">
<path fill-rule="evenodd" clip-rule="evenodd" d="M37.793 43.6913C36.2155 42.5717 34.5379 41.2756 33.2421 39.9203C31.9463 38.5657 31.0324 37.1516 30.5034 35.7525C29.9713 34.3531 29.8242 32.9688 29.796 31.6723C29.7647 30.3765 29.8555 29.1684 29.9431 27.9605C29.2076 28.6679 28.4689 29.375 27.8367 30.1997C27.2044 31.0244 26.6723 31.9669 26.2748 32.9684C25.8773 33.9703 25.6113 35.0307 25.6113 36.6063C25.6113 37.4912 25.6958 38.5388 25.8147 39.6574C29.893 45.562 36.4534 49.6206 43.9871 50.3242C43.2954 47.7852 41.0168 45.9811 37.793 43.6913ZM61.2487 33.7005C61.2644 33.5353 61.5022 33.5916 61.6118 33.8182C62.2346 35.1174 61.6118 37.2492 60.5852 38.1463C59.8903 38.75 57.4646 39.135 56.2878 39.069C55.9716 36.3334 51.3206 35.3766 49.8558 36.2386C48.6476 36.9475 48.7133 39.1519 49.5615 41.0684C51.0764 44.4872 52.8605 45.4835 53.9121 49.261C52.2814 49.7805 50.5788 50.1367 48.826 50.3108C47.4488 47.6907 46.1843 46.2303 42.5348 44.1329C37.3204 41.1369 32.519 38.2993 31.6521 31.7756C31.2326 28.6419 32.5629 25.9355 34.1842 23.3655C32.6912 24.0616 31.4017 24.8018 29.9431 25.7518C31.1732 18.6928 37.6396 14.4252 44.2594 19.3889C43.4331 20.4493 42.61 21.5094 42.0059 22.511C41.4018 23.5129 41.02 24.4557 40.8572 25.6485C40.6944 26.8416 40.7539 28.2851 41.1952 29.4629C41.6365 30.6413 42.4628 31.5546 43.286 32.468C43.5521 31.8198 43.8181 31.1719 44.2594 30.6711C44.7008 30.1703 45.3205 29.8169 45.9245 29.6401C46.5255 29.4629 47.1171 29.4632 47.4989 29.6401C47.7118 29.7377 48.7164 31.5018 49.6554 31.641C52.247 32.0241 54.5006 33.6392 55.9842 34.8408C58.1156 36.5729 60.557 36.7531 61.2487 33.7005ZM60.9858 19.3545C61.9373 19.3617 62.917 19.8528 64.4193 20.7098C63.8497 21.7257 63.3614 22.1495 62.9889 23.357C62.6102 24.5652 62.316 25.8907 62.147 27.0469C62.0124 27.9612 62.1752 28.8585 62.1345 29.6448C62.1251 29.8523 61.9874 30.118 61.8903 30.1768C61.593 29.7055 61.2988 29.2341 60.9107 28.9396C60.5194 28.6451 60.0343 28.5271 58.4067 28.6153C56.7792 28.7039 54.0092 28.9984 51.2392 29.293C51.2423 29.0923 51.3205 28.8479 51.6523 28.7527C53.9372 28.1008 56.7072 27.7277 58.0374 27.2973C59.5617 26.8043 59.9748 26.5684 60.3661 25.8241C60.7542 25.0807 61.1235 23.8287 61.0891 22.9746C61.0484 22.1201 60.6071 21.6634 60.2033 21.3617C59.7964 21.0597 59.4302 20.9123 59.0609 20.7652C59.0609 19.9495 59.8308 19.3454 60.9858 19.3545ZM47.1202 15.8493C48.754 15.8493 50.3785 15.0981 52.0154 15.0981C51.9841 15.4224 51.8996 16.0114 51.9591 16.3648C52.0185 16.7185 52.3754 17.079 52.5225 17.4621C51.2642 17.2358 48.006 16.7955 47.1202 15.8493ZM42.5192 0.882256C46.8823 4.08793 47.4707 5.03662 48.7227 9.71242C51.8433 12.0837 54.9669 14.4552 58.0875 16.8268C57.7807 16.1638 57.4709 15.5012 56.6321 14.6023C55.7901 13.704 54.4223 12.5697 53.3237 11.4946C52.2282 10.4198 51.4019 9.40318 50.945 8.46045C50.488 7.51802 50.4003 6.64916 50.3127 5.78029C49.1077 4.05132 47.9027 2.32265 46.6945 0.59399C46.5756 0.59211 46.4566 0.591179 46.3346 0.591179C45.0357 0.591179 43.7618 0.690704 42.5192 0.882256ZM44.7008 8.60786C43.0356 4.86228 39.4425 4.13489 35.7742 3.57088C41.5833 3.14082 44.9699 4.20971 47.8807 9.58004C47.0732 5.85073 45.0419 3.06288 40.8541 1.1965C36.6662 2.13705 32.8727 4.13238 29.7741 6.88891C35.3141 6.03819 39.5238 6.26355 44.7008 8.60786ZM36.4816 15.3241C36.2312 15.3535 35.9808 15.3829 35.5238 15.464C35.0668 15.545 34.4064 15.6774 33.6239 15.8912C32.8446 16.1047 31.9463 16.3992 31.048 16.6937C31.3704 16.3848 31.6959 16.0753 32.2624 15.6997C32.8289 15.3241 33.6396 14.8821 34.6568 14.5654C35.6709 14.2489 36.8947 14.0574 38.1185 13.8658C37.3798 13.8217 36.6443 13.7776 35.7147 13.7995C34.7883 13.8217 33.6677 13.91 32.5566 14.1162C31.4455 14.3225 30.3406 14.6464 29.2358 14.9707C29.5738 14.6759 29.9118 14.3814 30.5222 14.0205C31.1356 13.6596 32.0183 13.2327 32.9666 12.8643C33.9181 12.4962 34.9354 12.1869 35.9526 11.8774C34.5379 11.966 33.1231 12.0542 31.9807 12.2088C30.8414 12.3635 29.9713 12.5844 28.976 12.9012C27.9838 13.2179 26.8633 13.6302 25.7459 14.0427C26.6442 13.4536 27.5425 12.8643 28.5879 12.3269C29.6333 11.7891 30.8258 11.3031 32.3 10.9056C33.771 10.5077 35.5238 10.1985 37.2327 10.0292C38.9417 9.85984 40.6068 9.83074 42.2719 9.80069C40.9448 9.56501 39.6209 9.32965 38.372 9.18222C37.1294 9.03481 35.9651 8.97596 34.7006 8.95405C33.433 8.93183 32.0621 8.94653 30.5159 9.09395C29.4768 9.19286 28.3562 9.35153 27.2138 9.53025C23.5956 13.8564 21.4141 19.4302 21.4141 25.5123C21.4141 28.579 21.968 31.5158 22.9821 34.2292C24.0588 25.7871 28.494 18.6405 36.4816 15.3241Z" fill="#050E53"/>
<path fill-rule="evenodd" clip-rule="evenodd" d="M67.312 25.5138C67.312 34.4366 61.7422 42.0584 53.8886 45.0913L55.8774 48.542C64.9077 44.7963 71.2547 35.8967 71.2547 25.5138C71.2547 12.5244 61.3172 1.85574 48.6328 0.697369L50.8214 5.01524C60.2514 7.06935 67.312 15.4669 67.312 25.5138Z" fill="#E0BA5D"/>
<path d="M46.8067 56.3947V75.0099H43.1748L43.1682 62.4429L41.7246 75.0099H39.1802L37.6575 62.7253L37.6509 75.0099H34.0156V56.3947H39.378C39.5329 57.5205 39.6845 58.8474 39.8723 60.3599L40.4623 65.0864L41.4082 56.3947H46.8067ZM52.6338 56.3947V75.0099H48.4777V56.3947H52.6338ZM63.5529 56.3947V75.0099H59.9209L57.7621 66.5455V75.0099H54.2916V56.3947H57.7621L60.0824 64.7766V56.3947H63.5529ZM69.3733 56.3947V75.0099H65.2173V56.3947H69.3733ZM80.2957 56.3947V75.0099H76.6637L74.5049 66.5455V75.0099H71.0344V56.3947H74.5049L76.8252 64.7766V56.3947H80.2957ZM91.462 63.2665H87.306V61.5761C87.306 60.5095 87.2664 59.8424 87.1906 59.5755C87.1148 59.3052 86.9269 59.1717 86.6402 59.1717C86.3897 59.1717 86.2183 59.2858 86.126 59.5168C86.0404 59.7446 85.9942 60.3368 85.9942 61.286V70.2128C85.9942 71.0443 86.0371 71.5974 86.126 71.86C86.2183 72.1231 86.3963 72.2562 86.6666 72.2562C86.9599 72.2562 87.161 72.1076 87.2664 71.809C87.3719 71.5117 87.4279 70.9267 87.4279 70.0599V67.8556H86.6204V65.0314H91.462V75.0099H88.8484L88.4628 73.6761C88.1827 74.2528 87.8267 74.6849 87.4015 74.9746C86.9698 75.2653 86.4589 75.4097 85.8789 75.4097C85.1801 75.4097 84.5342 75.2142 83.9244 74.8174C83.3213 74.4222 82.8599 73.9338 82.5468 73.3504C82.2337 72.769 82.0326 72.1583 81.9568 71.5189C81.8777 70.8799 81.8349 69.9185 81.8349 68.64V63.1096C81.8349 61.3328 81.9173 60.0425 82.0821 59.2387C82.2469 58.4302 82.7182 57.6929 83.4927 57.0222C84.2705 56.3515 85.2757 56.0183 86.5117 56.0183C87.7245 56.0183 88.7298 56.3086 89.5307 56.893C90.3316 57.4773 90.8556 58.1675 91.0962 58.9677C91.3401 59.7719 91.462 60.933 91.462 62.4623V63.2665Z" fill="#E0BA5D"/>
<path d="M9.30032 56.3907V60.1089H6.86126V75.0057H2.70481V60.1089H0.242188V56.3907H9.30032ZM16.753 56.3907L19.1273 75.0057H14.8884L14.6616 71.6638H13.1651L12.9383 75.0057H8.64636L10.7496 56.3907H16.753ZM14.5496 68.3693C14.3523 66.259 14.1431 63.647 13.9222 60.5286C13.5127 64.1056 13.2535 66.7179 13.1415 68.3693H14.5496ZM29.2636 56.3907V68.8359C29.2636 70.2478 29.2223 71.2402 29.1457 71.809C29.0632 72.3817 28.8305 72.9699 28.4446 73.57C28.0587 74.1741 27.5462 74.629 26.9158 74.9389C26.2795 75.2488 25.5342 75.4058 24.6711 75.4058C23.7197 75.4058 22.8801 75.2214 22.1525 74.8525C21.425 74.484 20.88 74.0054 20.5206 73.4171C20.1553 72.8247 19.9432 72.2011 19.8784 71.5463C19.8136 70.8911 19.7783 69.5105 19.7783 67.4122V56.3907H23.9347V70.3538C23.9347 71.1657 23.973 71.6874 24.0466 71.9109C24.1203 72.1383 24.2735 72.2521 24.4973 72.2521C24.7536 72.2521 24.9215 72.1269 24.9952 71.8794C25.0688 71.6284 25.1071 71.0402 25.1071 70.1146V56.3907H29.2636Z" fill="#050E53"/>
</svg>
